<svg xmlns="http://www.w3.org/2000/svg" xmlns:xlink="http://www.w3.org/1999/xlink" viewBox="0 0 1600 1305" width="1600" height="1305">
<rect x="0" y="0" width="1600" height="1305" fill="#ffffff"/>
<text x="40.0" y="40.0" font-family="'Times New Roman','Liberation Serif','Nimbus Roman',serif" font-size="20" font-weight="bold" text-anchor="start" fill="#000">(a)</text>
<line x1="138.4" y1="82.0" x2="138.4" y2="757.7" stroke="#9a9a9a" stroke-width="0.6" stroke-dasharray="8 5"/>
<text x="138.4" y="74.0" font-family="'Times New Roman','Liberation Serif','Nimbus Roman',serif" font-size="10.5" text-anchor="middle" fill="#6b6b6b">A</text>
<line x1="224.7" y1="82.0" x2="224.7" y2="757.7" stroke="#9a9a9a" stroke-width="0.6" stroke-dasharray="8 5"/>
<text x="224.7" y="74.0" font-family="'Times New Roman','Liberation Serif','Nimbus Roman',serif" font-size="10.5" text-anchor="middle" fill="#6b6b6b">B</text>
<line x1="307.8" y1="82.0" x2="307.8" y2="757.7" stroke="#9a9a9a" stroke-width="0.6" stroke-dasharray="8 5"/>
<text x="307.8" y="74.0" font-family="'Times New Roman','Liberation Serif','Nimbus Roman',serif" font-size="10.5" text-anchor="middle" fill="#6b6b6b">C</text>
<line x1="392.6" y1="82.0" x2="392.6" y2="757.7" stroke="#9a9a9a" stroke-width="0.6" stroke-dasharray="8 5"/>
<text x="392.6" y="74.0" font-family="'Times New Roman','Liberation Serif','Nimbus Roman',serif" font-size="10.5" text-anchor="middle" fill="#6b6b6b">D</text>
<line x1="477.3" y1="82.0" x2="477.3" y2="757.7" stroke="#9a9a9a" stroke-width="0.6" stroke-dasharray="8 5"/>
<text x="477.3" y="74.0" font-family="'Times New Roman','Liberation Serif','Nimbus Roman',serif" font-size="10.5" text-anchor="middle" fill="#6b6b6b">E</text>
<line x1="519.6" y1="82.0" x2="519.6" y2="757.7" stroke="#9a9a9a" stroke-width="0.6" stroke-dasharray="8 5"/>
<text x="519.6" y="74.0" font-family="'Times New Roman','Liberation Serif','Nimbus Roman',serif" font-size="10.5" text-anchor="middle" fill="#6b6b6b">F</text>
<line x1="562.0" y1="82.0" x2="562.0" y2="757.7" stroke="#9a9a9a" stroke-width="0.6" stroke-dasharray="8 5"/>
<text x="562.0" y="74.0" font-family="'Times New Roman','Liberation Serif','Nimbus Roman',serif" font-size="10.5" text-anchor="middle" fill="#6b6b6b">G</text>
<line x1="646.7" y1="82.0" x2="646.7" y2="757.7" stroke="#9a9a9a" stroke-width="0.6" stroke-dasharray="8 5"/>
<text x="646.7" y="74.0" font-family="'Times New Roman','Liberation Serif','Nimbus Roman',serif" font-size="10.5" text-anchor="middle" fill="#6b6b6b">H</text>
<line x1="731.5" y1="82.0" x2="731.5" y2="757.7" stroke="#9a9a9a" stroke-width="0.6" stroke-dasharray="8 5"/>
<text x="731.5" y="74.0" font-family="'Times New Roman','Liberation Serif','Nimbus Roman',serif" font-size="10.5" text-anchor="middle" fill="#6b6b6b">I</text>
<line x1="779.6" y1="82.0" x2="779.6" y2="757.7" stroke="#9a9a9a" stroke-width="0.6" stroke-dasharray="8 5"/>
<text x="779.6" y="74.0" font-family="'Times New Roman','Liberation Serif','Nimbus Roman',serif" font-size="10.5" text-anchor="middle" fill="#6b6b6b">J</text>
<line x1="816.2" y1="82.0" x2="816.2" y2="757.7" stroke="#9a9a9a" stroke-width="0.6" stroke-dasharray="8 5"/>
<text x="816.2" y="74.0" font-family="'Times New Roman','Liberation Serif','Nimbus Roman',serif" font-size="10.5" text-anchor="middle" fill="#6b6b6b">K</text>
<line x1="900.9" y1="82.0" x2="900.9" y2="757.7" stroke="#9a9a9a" stroke-width="0.6" stroke-dasharray="8 5"/>
<text x="900.9" y="74.0" font-family="'Times New Roman','Liberation Serif','Nimbus Roman',serif" font-size="10.5" text-anchor="middle" fill="#6b6b6b">L</text>
<line x1="985.7" y1="82.0" x2="985.7" y2="757.7" stroke="#9a9a9a" stroke-width="0.6" stroke-dasharray="8 5"/>
<text x="985.7" y="74.0" font-family="'Times New Roman','Liberation Serif','Nimbus Roman',serif" font-size="10.5" text-anchor="middle" fill="#6b6b6b">M</text>
<line x1="1070.4" y1="82.0" x2="1070.4" y2="757.7" stroke="#9a9a9a" stroke-width="0.6" stroke-dasharray="8 5"/>
<text x="1070.4" y="74.0" font-family="'Times New Roman','Liberation Serif','Nimbus Roman',serif" font-size="10.5" text-anchor="middle" fill="#6b6b6b">N</text>
<line x1="1155.1" y1="82.0" x2="1155.1" y2="757.7" stroke="#9a9a9a" stroke-width="0.6" stroke-dasharray="8 5"/>
<text x="1155.1" y="74.0" font-family="'Times New Roman','Liberation Serif','Nimbus Roman',serif" font-size="10.5" text-anchor="middle" fill="#6b6b6b">O</text>
<line x1="1239.8" y1="82.0" x2="1239.8" y2="757.7" stroke="#9a9a9a" stroke-width="0.6" stroke-dasharray="8 5"/>
<text x="1239.8" y="74.0" font-family="'Times New Roman','Liberation Serif','Nimbus Roman',serif" font-size="10.5" text-anchor="middle" fill="#6b6b6b">P</text>
<line x1="1322.9" y1="82.0" x2="1322.9" y2="757.7" stroke="#9a9a9a" stroke-width="0.6" stroke-dasharray="8 5"/>
<text x="1322.9" y="74.0" font-family="'Times New Roman','Liberation Serif','Nimbus Roman',serif" font-size="10.5" text-anchor="middle" fill="#6b6b6b">Q</text>
<line x1="1409.3" y1="82.0" x2="1409.3" y2="757.7" stroke="#9a9a9a" stroke-width="0.6" stroke-dasharray="8 5"/>
<text x="1409.3" y="74.0" font-family="'Times New Roman','Liberation Serif','Nimbus Roman',serif" font-size="10.5" text-anchor="middle" fill="#6b6b6b">R</text>
<line x1="82.0" y1="697.4" x2="1465.7" y2="697.4" stroke="#9a9a9a" stroke-width="0.6" stroke-dasharray="8 5"/>
<text x="74.0" y="701.4" font-family="'Times New Roman','Liberation Serif','Nimbus Roman',serif" font-size="10.5" text-anchor="middle" fill="#6b6b6b">1</text>
<line x1="82.0" y1="627.6" x2="1465.7" y2="627.6" stroke="#9a9a9a" stroke-width="0.6" stroke-dasharray="8 5"/>
<text x="74.0" y="631.6" font-family="'Times New Roman','Liberation Serif','Nimbus Roman',serif" font-size="10.5" text-anchor="middle" fill="#6b6b6b">2</text>
<line x1="82.0" y1="489.7" x2="1465.7" y2="489.7" stroke="#9a9a9a" stroke-width="0.6" stroke-dasharray="8 5"/>
<text x="74.0" y="493.7" font-family="'Times New Roman','Liberation Serif','Nimbus Roman',serif" font-size="10.5" text-anchor="middle" fill="#6b6b6b">3</text>
<line x1="82.0" y1="466.1" x2="1465.7" y2="466.1" stroke="#9a9a9a" stroke-width="0.6" stroke-dasharray="8 5"/>
<text x="74.0" y="470.1" font-family="'Times New Roman','Liberation Serif','Nimbus Roman',serif" font-size="10.5" text-anchor="middle" fill="#6b6b6b">4</text>
<line x1="82.0" y1="419.9" x2="1465.7" y2="419.9" stroke="#9a9a9a" stroke-width="0.6" stroke-dasharray="8 5"/>
<text x="74.0" y="423.9" font-family="'Times New Roman','Liberation Serif','Nimbus Roman',serif" font-size="10.5" text-anchor="middle" fill="#6b6b6b">5</text>
<line x1="82.0" y1="336.1" x2="1465.7" y2="336.1" stroke="#9a9a9a" stroke-width="0.6" stroke-dasharray="8 5"/>
<text x="74.0" y="340.1" font-family="'Times New Roman','Liberation Serif','Nimbus Roman',serif" font-size="10.5" text-anchor="middle" fill="#6b6b6b">6</text>
<line x1="82.0" y1="234.8" x2="1465.7" y2="234.8" stroke="#9a9a9a" stroke-width="0.6" stroke-dasharray="8 5"/>
<text x="74.0" y="238.8" font-family="'Times New Roman','Liberation Serif','Nimbus Roman',serif" font-size="10.5" text-anchor="middle" fill="#6b6b6b">7</text>
<line x1="82.0" y1="219.1" x2="1465.7" y2="219.1" stroke="#9a9a9a" stroke-width="0.6" stroke-dasharray="8 5"/>
<text x="74.0" y="223.1" font-family="'Times New Roman','Liberation Serif','Nimbus Roman',serif" font-size="10.5" text-anchor="middle" fill="#6b6b6b">8</text>
<line x1="82.0" y1="198.2" x2="1465.7" y2="198.2" stroke="#9a9a9a" stroke-width="0.6" stroke-dasharray="8 5"/>
<text x="74.0" y="202.2" font-family="'Times New Roman','Liberation Serif','Nimbus Roman',serif" font-size="10.5" text-anchor="middle" fill="#6b6b6b">9</text>
<line x1="82.0" y1="142.3" x2="1465.7" y2="142.3" stroke="#9a9a9a" stroke-width="0.6" stroke-dasharray="8 5"/>
<text x="74.0" y="146.3" font-family="'Times New Roman','Liberation Serif','Nimbus Roman',serif" font-size="10.5" text-anchor="middle" fill="#6b6b6b">10</text>
<polygon points="265.5,651.2 519.6,651.2 689.1,651.2 689.1,466.1 773.8,466.1 773.8,373.6 689.1,373.6 604.4,373.6 519.6,373.6 519.6,281.1 434.9,281.1 434.9,188.5 1282.2,188.5 1282.2,373.6 1451.7,373.6 1451.7,188.5 1451.7,96.0 96.0,96.0 96.0,188.5 96.0,743.7 265.5,743.7" fill="#f2f2f2" stroke="#000" stroke-width="1.0"/>
<polygon points="265.5,651.2 519.6,651.2 689.1,651.2 689.1,466.1 773.8,466.1 773.8,373.6 689.1,373.6 604.4,373.6 519.6,373.6 519.6,281.1 434.9,281.1 434.9,188.5 1282.2,188.5 1282.2,373.6 1451.7,373.6 1451.7,188.5 1451.7,96.0 96.0,96.0 96.0,188.5 96.0,743.7 265.5,743.7" fill="none" stroke="#000" stroke-width="1.0"/>
<polygon points="519.6,558.6 519.6,466.1 773.8,466.1 773.8,188.5 1282.2,188.5 1282.2,373.6 1451.7,373.6 1451.7,188.5 1451.7,96.0 96.0,96.0 96.0,188.5 96.0,743.7 265.5,743.7 265.5,651.2 350.2,651.2 519.6,651.2 689.1,651.2 689.1,558.6" fill="none" stroke="#000" stroke-width="0.7"/>
<polygon points="434.9,558.6 434.9,651.2 265.5,651.2 265.5,188.5 434.9,188.5 434.9,373.6 689.1,373.6 689.1,188.5 943.3,188.5 943.3,373.6 1282.2,373.6 1451.7,373.6 1451.7,188.5 1451.7,96.0 96.0,96.0 96.0,188.5 96.0,743.7 265.5,743.7 434.9,743.7 773.8,743.7 773.8,558.6" fill="none" stroke="#000" stroke-width="0.9"/>
<polygon points="943.3,466.1 858.6,466.1 858.6,188.5 1282.2,188.5 1282.2,373.6 1451.7,373.6 1451.7,188.5 1451.7,96.0 96.0,96.0 96.0,188.5 96.0,743.7 265.5,743.7 265.5,651.2 519.6,651.2 689.1,651.2 943.3,651.2" fill="none" stroke="#000" stroke-width="1.15"/>
<polygon points="604.4,558.6 604.4,466.1 519.6,466.1 265.5,466.1 265.5,188.5 519.6,188.5 519.6,219.1 779.6,219.1 779.6,466.1 858.6,466.1 858.6,558.6 1112.7,558.6 1112.7,373.6 1197.5,373.6 1197.5,188.5 1282.2,188.5 1282.2,373.6 1451.7,373.6 1451.7,188.5 1451.7,96.0 96.0,96.0 96.0,188.5 96.0,743.7 265.5,743.7 265.5,558.6" fill="none" stroke="#000" stroke-width="1.4"/>
<polygon points="265.5,558.6 604.4,558.6 604.4,466.1 858.6,466.1 858.6,558.6 1112.7,558.6 1112.7,373.6 1197.5,373.6 1197.5,188.5 1282.2,188.5 1282.2,373.6 1451.7,373.6 1451.7,188.5 1451.7,96.0 96.0,96.0 96.0,188.5 96.0,743.7 265.5,743.7" fill="none" stroke="#000" stroke-width="1.7"/>
<rect x="519.6" y="219.1" width="260.0" height="247.0" fill="#dcdcdc" stroke="#555" stroke-width="0.8" stroke-dasharray="4 3"/>
<line x1="392.6" y1="50.0" x2="477.3" y2="50.0" stroke="#000" stroke-width="0.9"/>
<line x1="392.6" y1="45.0" x2="392.6" y2="55.0" stroke="#000" stroke-width="0.9"/>
<line x1="477.3" y1="45.0" x2="477.3" y2="55.0" stroke="#000" stroke-width="0.9"/>
<circle cx="434.9" cy="36.0" r="9.5" fill="#fff" stroke="#000" stroke-width="1.1"/>
<text x="434.9" y="40.0" font-family="'Times New Roman','Liberation Serif','Nimbus Roman',serif" font-size="11" font-weight="bold" text-anchor="middle" fill="#000">1</text>
<line x1="46.0" y1="489.7" x2="46.0" y2="466.1" stroke="#000" stroke-width="0.9"/>
<line x1="41.0" y1="489.7" x2="51.0" y2="489.7" stroke="#000" stroke-width="0.9"/>
<line x1="41.0" y1="466.1" x2="51.0" y2="466.1" stroke="#000" stroke-width="0.9"/>
<circle cx="30.0" cy="477.9" r="9.5" fill="#fff" stroke="#000" stroke-width="1.1"/>
<text x="30.0" y="481.9" font-family="'Times New Roman','Liberation Serif','Nimbus Roman',serif" font-size="11" font-weight="bold" text-anchor="middle" fill="#000">2</text>
<circle cx="118.0" cy="721.7" r="9.5" fill="#fff" stroke="#000" stroke-width="1.1"/>
<text x="118.0" y="725.7" font-family="'Times New Roman','Liberation Serif','Nimbus Roman',serif" font-size="11" font-weight="bold" text-anchor="middle" fill="#000">3</text>
<line x1="66.0" y1="66.0" x2="94.0" y2="94.0" stroke="#000" stroke-width="0.8"/>
<circle cx="62.0" cy="60.0" r="9.5" fill="#fff" stroke="#000" stroke-width="1.1"/>
<text x="62.0" y="64.0" font-family="'Times New Roman','Liberation Serif','Nimbus Roman',serif" font-size="11" font-weight="bold" text-anchor="middle" fill="#000">4</text>
<line x1="1453.7" y1="745.7" x2="1465.7" y2="759.7" stroke="#000" stroke-width="0.8"/>
<circle cx="1473.7" cy="769.7" r="9.5" fill="#fff" stroke="#000" stroke-width="1.1"/>
<text x="1473.7" y="773.7" font-family="'Times New Roman','Liberation Serif','Nimbus Roman',serif" font-size="11" font-weight="bold" text-anchor="middle" fill="#000">5</text>
<circle cx="649.6" cy="342.6" r="9.5" fill="#fff" stroke="#000" stroke-width="1.1"/>
<text x="649.6" y="346.6" font-family="'Times New Roman','Liberation Serif','Nimbus Roman',serif" font-size="11" font-weight="bold" text-anchor="middle" fill="#000">6</text>
<line x1="1481.7" y1="150.0" x2="1481.7" y2="115.0" stroke="#000" stroke-width="1.4"/>
<polygon points="1481.7,106.0 1486.6,115.0 1476.7,115.0" fill="#000"/>
<text x="1481.7" y="98.0" font-family="'Times New Roman','Liberation Serif','Nimbus Roman',serif" font-size="12" font-weight="bold" text-anchor="middle" fill="#000">N</text>
<rect x="96.0" y="793.7" width="65.0" height="6.0" fill="#000" stroke="#000" stroke-width="0.8"/>
<rect x="161.0" y="793.7" width="65.0" height="6.0" fill="#fff" stroke="#000" stroke-width="0.8"/>
<rect x="226.0" y="793.7" width="65.0" height="6.0" fill="#000" stroke="#000" stroke-width="0.8"/>
<rect x="291.0" y="793.7" width="65.0" height="6.0" fill="#fff" stroke="#000" stroke-width="0.8"/>
<text x="96.0" y="813.7" font-family="'Times New Roman','Liberation Serif','Nimbus Roman',serif" font-size="10.5" text-anchor="middle" fill="#6b6b6b">0</text>
<text x="226.0" y="813.7" font-family="'Times New Roman','Liberation Serif','Nimbus Roman',serif" font-size="10.5" text-anchor="middle" fill="#6b6b6b">10</text>
<text x="356.0" y="813.7" font-family="'Times New Roman','Liberation Serif','Nimbus Roman',serif" font-size="10.5" text-anchor="middle" fill="#6b6b6b">20 m</text>
<text x="40.0" y="853.7" font-family="'Times New Roman','Liberation Serif','Nimbus Roman',serif" font-size="20" font-weight="bold" text-anchor="start" fill="#000">(b)</text>
<line x1="138.4" y1="869.7" x2="138.4" y2="1235.1" stroke="#c8c8c8" stroke-width="0.6" stroke-dasharray="8 5"/>
<line x1="224.7" y1="869.7" x2="224.7" y2="1235.1" stroke="#c8c8c8" stroke-width="0.6" stroke-dasharray="8 5"/>
<line x1="307.8" y1="869.7" x2="307.8" y2="1235.1" stroke="#c8c8c8" stroke-width="0.6" stroke-dasharray="8 5"/>
<line x1="392.6" y1="869.7" x2="392.6" y2="1235.1" stroke="#c8c8c8" stroke-width="0.6" stroke-dasharray="8 5"/>
<line x1="477.3" y1="869.7" x2="477.3" y2="1235.1" stroke="#c8c8c8" stroke-width="0.6" stroke-dasharray="8 5"/>
<line x1="519.6" y1="869.7" x2="519.6" y2="1235.1" stroke="#c8c8c8" stroke-width="0.6" stroke-dasharray="8 5"/>
<line x1="562.0" y1="869.7" x2="562.0" y2="1235.1" stroke="#c8c8c8" stroke-width="0.6" stroke-dasharray="8 5"/>
<line x1="646.7" y1="869.7" x2="646.7" y2="1235.1" stroke="#c8c8c8" stroke-width="0.6" stroke-dasharray="8 5"/>
<line x1="731.5" y1="869.7" x2="731.5" y2="1235.1" stroke="#c8c8c8" stroke-width="0.6" stroke-dasharray="8 5"/>
<line x1="779.6" y1="869.7" x2="779.6" y2="1235.1" stroke="#c8c8c8" stroke-width="0.6" stroke-dasharray="8 5"/>
<line x1="816.2" y1="869.7" x2="816.2" y2="1235.1" stroke="#c8c8c8" stroke-width="0.6" stroke-dasharray="8 5"/>
<line x1="900.9" y1="869.7" x2="900.9" y2="1235.1" stroke="#c8c8c8" stroke-width="0.6" stroke-dasharray="8 5"/>
<line x1="985.7" y1="869.7" x2="985.7" y2="1235.1" stroke="#c8c8c8" stroke-width="0.6" stroke-dasharray="8 5"/>
<line x1="1070.4" y1="869.7" x2="1070.4" y2="1235.1" stroke="#c8c8c8" stroke-width="0.6" stroke-dasharray="8 5"/>
<line x1="1155.1" y1="869.7" x2="1155.1" y2="1235.1" stroke="#c8c8c8" stroke-width="0.6" stroke-dasharray="8 5"/>
<line x1="1239.8" y1="869.7" x2="1239.8" y2="1235.1" stroke="#c8c8c8" stroke-width="0.6" stroke-dasharray="8 5"/>
<line x1="1322.9" y1="869.7" x2="1322.9" y2="1235.1" stroke="#c8c8c8" stroke-width="0.6" stroke-dasharray="8 5"/>
<line x1="1409.3" y1="869.7" x2="1409.3" y2="1235.1" stroke="#c8c8c8" stroke-width="0.6" stroke-dasharray="8 5"/>
<line x1="76.0" y1="1235.1" x2="1471.7" y2="1235.1" stroke="#000" stroke-width="1.6"/>
<line x1="96.0" y1="1235.1" x2="1451.7" y2="1235.1" stroke="#000" stroke-width="2.2"/>
<text x="1481.7" y="1239.1" font-family="'Times New Roman','Liberation Serif','Nimbus Roman',serif" font-size="10.5" text-anchor="start" fill="#6b6b6b">L00</text>
<text x="1513.7" y="1239.1" font-family="'Times New Roman','Liberation Serif','Nimbus Roman',serif" font-size="10.5" text-anchor="start" fill="#6b6b6b">+0.00</text>
<line x1="96.0" y1="1166.1" x2="1451.7" y2="1166.1" stroke="#000" stroke-width="1.4"/>
<text x="1481.7" y="1170.1" font-family="'Times New Roman','Liberation Serif','Nimbus Roman',serif" font-size="10.5" text-anchor="start" fill="#6b6b6b">L01</text>
<text x="1513.7" y="1170.1" font-family="'Times New Roman','Liberation Serif','Nimbus Roman',serif" font-size="10.5" text-anchor="start" fill="#6b6b6b">+5.31</text>
<line x1="96.0" y1="1108.8" x2="1451.7" y2="1108.8" stroke="#000" stroke-width="1.4"/>
<text x="1481.7" y="1112.8" font-family="'Times New Roman','Liberation Serif','Nimbus Roman',serif" font-size="10.5" text-anchor="start" fill="#6b6b6b">L02</text>
<text x="1513.7" y="1112.8" font-family="'Times New Roman','Liberation Serif','Nimbus Roman',serif" font-size="10.5" text-anchor="start" fill="#6b6b6b">+9.72</text>
<line x1="96.0" y1="1051.5" x2="1451.7" y2="1051.5" stroke="#000" stroke-width="1.4"/>
<text x="1481.7" y="1055.5" font-family="'Times New Roman','Liberation Serif','Nimbus Roman',serif" font-size="10.5" text-anchor="start" fill="#6b6b6b">L03</text>
<text x="1513.7" y="1055.5" font-family="'Times New Roman','Liberation Serif','Nimbus Roman',serif" font-size="10.5" text-anchor="start" fill="#6b6b6b">+14.12</text>
<line x1="96.0" y1="994.2" x2="1451.7" y2="994.2" stroke="#000" stroke-width="1.4"/>
<text x="1481.7" y="998.2" font-family="'Times New Roman','Liberation Serif','Nimbus Roman',serif" font-size="10.5" text-anchor="start" fill="#6b6b6b">L04</text>
<text x="1513.7" y="998.2" font-family="'Times New Roman','Liberation Serif','Nimbus Roman',serif" font-size="10.5" text-anchor="start" fill="#6b6b6b">+18.53</text>
<line x1="96.0" y1="937.0" x2="1451.7" y2="937.0" stroke="#000" stroke-width="1.4"/>
<text x="1481.7" y="941.0" font-family="'Times New Roman','Liberation Serif','Nimbus Roman',serif" font-size="10.5" text-anchor="start" fill="#6b6b6b">L05</text>
<text x="1513.7" y="941.0" font-family="'Times New Roman','Liberation Serif','Nimbus Roman',serif" font-size="10.5" text-anchor="start" fill="#6b6b6b">+22.93</text>
<line x1="96.0" y1="879.7" x2="1451.7" y2="879.7" stroke="#000" stroke-width="2.2"/>
<text x="1481.7" y="883.7" font-family="'Times New Roman','Liberation Serif','Nimbus Roman',serif" font-size="10.5" text-anchor="start" fill="#6b6b6b">L06</text>
<text x="1513.7" y="883.7" font-family="'Times New Roman','Liberation Serif','Nimbus Roman',serif" font-size="10.5" text-anchor="start" fill="#6b6b6b">+27.34</text>
<line x1="138.4" y1="1166.1" x2="138.4" y2="1235.1" stroke="#555" stroke-width="1.0"/>
<line x1="224.7" y1="1166.1" x2="224.7" y2="1235.1" stroke="#555" stroke-width="1.0"/>
<line x1="307.8" y1="1166.1" x2="307.8" y2="1235.1" stroke="#555" stroke-width="1.0"/>
<line x1="392.6" y1="1166.1" x2="392.6" y2="1235.1" stroke="#555" stroke-width="1.0"/>
<line x1="477.3" y1="1166.1" x2="477.3" y2="1235.1" stroke="#555" stroke-width="1.0"/>
<line x1="519.6" y1="1166.1" x2="519.6" y2="1235.1" stroke="#555" stroke-width="1.0"/>
<line x1="562.0" y1="1166.1" x2="562.0" y2="1235.1" stroke="#555" stroke-width="1.0"/>
<line x1="646.7" y1="1166.1" x2="646.7" y2="1235.1" stroke="#555" stroke-width="1.0"/>
<line x1="731.5" y1="1166.1" x2="731.5" y2="1235.1" stroke="#555" stroke-width="1.0"/>
<line x1="779.6" y1="1166.1" x2="779.6" y2="1235.1" stroke="#555" stroke-width="1.0"/>
<line x1="816.2" y1="1166.1" x2="816.2" y2="1235.1" stroke="#555" stroke-width="1.0"/>
<line x1="900.9" y1="1166.1" x2="900.9" y2="1235.1" stroke="#555" stroke-width="1.0"/>
<line x1="985.7" y1="1166.1" x2="985.7" y2="1235.1" stroke="#555" stroke-width="1.0"/>
<line x1="1070.4" y1="1166.1" x2="1070.4" y2="1235.1" stroke="#555" stroke-width="1.0"/>
<line x1="1155.1" y1="1166.1" x2="1155.1" y2="1235.1" stroke="#555" stroke-width="1.0"/>
<line x1="1239.8" y1="1166.1" x2="1239.8" y2="1235.1" stroke="#555" stroke-width="1.0"/>
<line x1="1322.9" y1="1166.1" x2="1322.9" y2="1235.1" stroke="#555" stroke-width="1.0"/>
<line x1="1409.3" y1="1166.1" x2="1409.3" y2="1235.1" stroke="#555" stroke-width="1.0"/>
<line x1="48.0" y1="1166.1" x2="48.0" y2="1108.8" stroke="#000" stroke-width="0.9"/>
<line x1="43.0" y1="1166.1" x2="53.0" y2="1166.1" stroke="#000" stroke-width="0.9"/>
<line x1="43.0" y1="1108.8" x2="53.0" y2="1108.8" stroke="#000" stroke-width="0.9"/>
<circle cx="32.0" cy="1137.4" r="9.5" fill="#fff" stroke="#000" stroke-width="1.1"/>
<text x="32.0" y="1141.4" font-family="'Times New Roman','Liberation Serif','Nimbus Roman',serif" font-size="11" font-weight="bold" text-anchor="middle" fill="#000">7</text>
<line x1="48.0" y1="1235.1" x2="48.0" y2="1166.1" stroke="#000" stroke-width="0.9"/>
<line x1="43.0" y1="1235.1" x2="53.0" y2="1235.1" stroke="#000" stroke-width="0.9"/>
<circle cx="32.0" cy="1200.6" r="9.5" fill="#fff" stroke="#000" stroke-width="1.1"/>
<text x="32.0" y="1204.6" font-family="'Times New Roman','Liberation Serif','Nimbus Roman',serif" font-size="11" font-weight="bold" text-anchor="middle" fill="#000">8</text>
<rect x="96.0" y="1261.1" width="65.0" height="6.0" fill="#000" stroke="#000" stroke-width="0.8"/>
<rect x="161.0" y="1261.1" width="65.0" height="6.0" fill="#fff" stroke="#000" stroke-width="0.8"/>
<rect x="226.0" y="1261.1" width="65.0" height="6.0" fill="#000" stroke="#000" stroke-width="0.8"/>
<rect x="291.0" y="1261.1" width="65.0" height="6.0" fill="#fff" stroke="#000" stroke-width="0.8"/>
<text x="96.0" y="1281.1" font-family="'Times New Roman','Liberation Serif','Nimbus Roman',serif" font-size="10.5" text-anchor="middle" fill="#6b6b6b">0</text>
<text x="226.0" y="1281.1" font-family="'Times New Roman','Liberation Serif','Nimbus Roman',serif" font-size="10.5" text-anchor="middle" fill="#6b6b6b">10</text>
<text x="356.0" y="1281.1" font-family="'Times New Roman','Liberation Serif','Nimbus Roman',serif" font-size="10.5" text-anchor="middle" fill="#6b6b6b">20 m</text>
<text x="1050.0" y="40.0" font-family="'Times New Roman','Liberation Serif','Nimbus Roman',serif" font-size="20" font-weight="bold" text-anchor="start" fill="#000">(c)</text>
<image href="assets/mass_building-v3-17d43fed2ff2.png" x="1050.0" y="96.0" width="510.0" height="350.6" preserveAspectRatio="xMidYMid meet"/>
<text x="1305.0" y="466.6" font-family="'Times New Roman','Liberation Serif','Nimbus Roman',serif" font-size="12" text-anchor="middle" fill="#000">massing, south-west</text>
<image href="assets/sect_building-v3-17d43fed2ff2.png" x="1050.0" y="490.6" width="510.0" height="350.6" preserveAspectRatio="xMidYMid meet"/>
<text x="1305.0" y="861.2" font-family="'Times New Roman','Liberation Serif','Nimbus Roman',serif" font-size="12" text-anchor="middle" fill="#000">section, open side</text>
</svg>
